<svg width="18" height="18" viewBox="0 0 18 18" fill="none" xmlns="http://www.w3.org/2000/svg">
<path d="M16.4024 2.52637C15.6836 1.76465 14.7051 1.33887 13.6856 1.34082H13.6817C12.666 1.33887 11.6895 1.7627 10.9727 2.52051L10.9707 2.52246L3.89455 9.96778C3.23635 10.6631 3.04104 11.7061 3.39846 12.6123C3.75588 13.5186 4.59768 14.1084 5.53127 14.1064C6.12111 14.1064 6.70901 13.8721 7.15627 13.3994L14.2324 5.9541C14.5332 5.6377 14.5332 5.12598 14.2324 4.80957C13.9317 4.49316 13.4453 4.49316 13.1446 4.80957L6.07033 12.2549C5.9258 12.4053 5.73049 12.4893 5.52736 12.4893C5.32424 12.4893 5.12893 12.4033 4.98635 12.251C4.83986 12.1025 4.75783 11.8975 4.75588 11.6826C4.75588 11.4678 4.83596 11.2627 4.98049 11.1123L12.0567 3.66699C12.4863 3.21191 13.0723 2.95801 13.6817 2.95996H13.6836C14.2949 2.95801 14.8828 3.21582 15.3145 3.6709C15.75 4.12793 15.9903 4.73926 15.9903 5.38574C15.9922 6.02832 15.75 6.64551 15.3184 7.09863L13.4082 9.1084L13.3965 9.12012L8.10158 14.6943C6.59963 16.2725 4.16604 16.2744 2.66213 14.6963C1.93947 13.9385 1.53518 12.9092 1.53908 11.8369C1.53908 10.7549 1.93947 9.73731 2.66604 8.97363L9.88088 1.38184C10.1817 1.06543 10.1817 0.553711 9.88088 0.237305C9.5801 -0.0791016 9.09377 -0.0791016 8.79299 0.237305L1.57815 7.8291C0.564473 8.88965 -0.00388625 10.333 2.00029e-05 11.8369C2.00029e-05 13.3506 0.558614 14.7744 1.57424 15.8408C2.58205 16.9033 3.95119 17.499 5.37893 17.4951C6.80861 17.4971 8.17971 16.9014 9.18947 15.8369L16.6719 7.96387C16.7461 7.88379 16.8047 7.78809 16.8418 7.68457C17.2871 7.0127 17.5293 6.21973 17.5293 5.38379C17.5313 4.31152 17.125 3.28223 16.4024 2.52637Z" fill="#5D7285"/>
</svg>
