<svg width="17" height="18" viewBox="0 0 17 18" fill="none" xmlns="http://www.w3.org/2000/svg">
<path fill-rule="evenodd" clip-rule="evenodd" d="M5.41248 2.1401L5.41225 1.8689L5.41244 1.64393V1.64389V1.64386V1.64382V1.64379V1.64376V1.64372V1.64369V1.64365C5.41269 1.44383 5.41293 1.24408 5.41142 1.04434C5.411 0.971674 5.40808 0.897549 5.39325 0.826765C5.28322 0.300584 4.81451 -0.0458189 4.2865 0.00492001C3.75975 0.0554501 3.36452 0.499155 3.36411 1.041C3.36397 1.405 3.36401 1.7691 3.36406 2.13322L3.36411 2.67947C3.36432 3.26474 3.81111 3.71972 4.38755 3.7216C4.96149 3.72348 5.40975 3.26954 5.41225 2.68281C5.41295 2.50185 5.41271 2.32099 5.41248 2.1401ZM11.2884 1.85696L11.2882 1.59272V1.5927V1.59268V1.59265V1.59263V1.59261V1.59258V1.59256V1.59254V1.59252C11.288 1.39886 11.2877 1.20524 11.2886 1.01152C11.2911 0.483671 11.7087 0.0353728 12.226 0.00321726C12.7783 -0.0310263 13.2476 0.342312 13.3219 0.87601C13.3309 0.941156 13.3361 1.00756 13.3363 1.07333C13.3366 1.21181 13.3372 1.3503 13.3378 1.48879V1.48881V1.48883V1.48885V1.48886V1.48888V1.4889V1.48892V1.48893V1.48895V1.48922V1.48935C13.3395 1.89341 13.3412 2.2975 13.3349 2.70136C13.3284 3.10643 13.1422 3.41984 12.7812 3.60568C12.4215 3.79089 12.0588 3.76687 11.7239 3.53615C11.4429 3.34259 11.294 3.0676 11.2894 2.72307C11.2868 2.52218 11.2874 2.32129 11.2881 2.12046V2.12042V2.12038V2.12034V2.1203V2.12026V2.12022V2.12017V2.12013V2.12009C11.2883 2.03237 11.2886 1.94465 11.2886 1.85696H11.2884ZM2.9315 2.04831C2.9315 2.11856 2.9311 2.18767 2.93071 2.256C2.92987 2.40456 2.92904 2.54939 2.93233 2.69413C2.94569 3.28588 3.21502 3.72896 3.73865 3.99915C4.67085 4.48043 5.80391 3.81248 5.84504 2.76346C5.85129 2.60532 5.84961 2.44689 5.8479 2.28548V2.28547V2.28546V2.28544V2.28543V2.28542V2.28541V2.2854V2.28539V2.28538C5.8471 2.20961 5.84629 2.13319 5.84629 2.05583H10.8531V2.18507V2.67576C10.8535 3.49217 11.4901 4.15094 12.2826 4.15512C13.1123 4.15951 13.7604 3.52057 13.7689 2.68829C13.7704 2.54442 13.77 2.40045 13.7696 2.25487V2.25484V2.25481V2.25478V2.25476V2.25473V2.2547V2.25467V2.25464V2.25462C13.7695 2.18942 13.7693 2.12389 13.7693 2.05791C13.7799 2.05639 13.7896 2.05462 13.7987 2.05295L13.7987 2.05295C13.8159 2.04981 13.831 2.04706 13.846 2.04706C13.9689 2.04706 14.0919 2.0465 14.2148 2.04595H14.2148H14.2148H14.2149H14.2149H14.2149H14.2149H14.2149H14.2149H14.2149C14.506 2.04464 14.7971 2.04333 15.088 2.04935C15.9897 2.06814 16.7006 2.7977 16.7006 3.69764C16.701 7.91836 16.701 12.1389 16.7006 16.3596C16.7006 17.1938 16.0672 17.9022 15.2391 17.9962C15.2008 18.0005 15.1619 18.0002 15.1231 17.9999L15.0932 17.9997H1.61847C0.831367 17.9997 0.135081 17.3999 0.0212957 16.6212C0.0077249 16.5287 0.00104391 16.4344 0.00104391 16.341C0 12.1234 0 7.90625 0 3.68928C0 2.80125 0.71257 2.06647 1.59801 2.04977C1.89826 2.04404 2.1986 2.04548 2.50524 2.04695C2.64573 2.04763 2.78755 2.04831 2.93129 2.04831H2.9315ZM15.3375 16.5993C15.3383 16.586 15.3392 16.5737 15.34 16.5621V16.5621L15.34 16.5621L15.34 16.562C15.3417 16.5392 15.3431 16.519 15.3431 16.4989L15.3432 14.9281V14.9232V14.9232V14.9232V14.9231V14.9231V14.9231V14.9231V14.923V14.923C15.3433 11.7844 15.3435 8.64568 15.3454 5.50711C15.3454 5.4142 15.3191 5.39081 15.2281 5.39102C10.6426 5.39311 6.05695 5.39332 1.47149 5.3906C1.37107 5.3906 1.35207 5.4238 1.35207 5.51526C1.35374 8.44082 1.3538 11.3664 1.35387 14.292L1.35395 16.4861C1.35395 16.5102 1.35547 16.5342 1.35705 16.5591L1.35705 16.5591L1.35706 16.5591L1.35706 16.5592L1.35706 16.5592L1.35706 16.5592L1.35706 16.5592C1.35789 16.5722 1.35873 16.5855 1.35937 16.5991H15.3375V16.5993ZM5.56821 9.45377H2.63776V7.47099C2.65059 7.47032 2.66311 7.46951 2.67541 7.46871C2.70175 7.467 2.72712 7.46535 2.75259 7.46535L3.42545 7.46543C4.09843 7.46562 4.77136 7.46582 5.44441 7.46284C5.54587 7.46243 5.57155 7.49228 5.57072 7.59147C5.56727 8.02709 5.5677 8.46259 5.56813 8.89815V8.89817V8.89819V8.89821V8.89823V8.89825V8.89827V8.89829L5.56842 9.33392V9.45377H5.56821ZM14.065 9.45177V7.47232H11.1372V9.45177H14.065ZM6.89103 7.47267H9.81313V9.45337H6.89103V7.47267ZM2.63776 12.4212H5.56028V10.4467H2.63776V12.4212ZM14.0612 12.4232H11.1362V10.4448H14.0612V12.4232ZM2.63626 13.4116V15.388H5.56024V13.4116H2.63626ZM9.81335 10.444V12.419H6.88895V10.444H9.81335ZM9.81227 13.4084H6.88662L6.88641 13.4086C6.88568 13.4229 6.88482 13.436 6.88401 13.4483C6.88251 13.471 6.88119 13.491 6.88119 13.5109C6.88114 13.6696 6.88125 13.8282 6.88136 13.9869C6.88165 14.4195 6.88195 14.852 6.8789 15.2847C6.87827 15.3782 6.90646 15.401 6.99686 15.4006C7.89775 15.3972 8.79843 15.397 9.69911 15.4006C9.79494 15.4008 9.82188 15.3739 9.82125 15.2782C9.81831 14.8641 9.81858 14.45 9.81885 14.0359C9.81896 13.8622 9.81908 13.6886 9.81895 13.5149C9.81895 13.4927 9.81713 13.4704 9.81516 13.4465C9.81416 13.4343 9.81312 13.4217 9.81227 13.4084Z" fill="#4C6175"/>
</svg>
