<svg width="47" height="19" viewBox="0 0 47 19" fill="none" xmlns="http://www.w3.org/2000/svg">
<path d="M0.768066 9.50399C0.768066 7.83999 1.11207 6.35999 1.80007 5.06399C2.50407 3.75199 3.49607 2.73599 4.77607 2.01599C6.05607 1.27999 7.52807 0.911987 9.19207 0.911987C11.3041 0.911987 13.0801 1.47999 14.5201 2.61599C15.9601 3.73599 16.8881 5.26399 17.3041 7.19999H12.2401C11.9361 6.55999 11.5121 6.07199 10.9681 5.73599C10.4401 5.39999 9.82407 5.23199 9.12007 5.23199C8.03207 5.23199 7.16007 5.62399 6.50407 6.40799C5.86407 7.17599 5.54407 8.20799 5.54407 9.50399C5.54407 10.816 5.86407 11.864 6.50407 12.648C7.16007 13.416 8.03207 13.8 9.12007 13.8C9.82407 13.8 10.4401 13.632 10.9681 13.296C11.5121 12.96 11.9361 12.472 12.2401 11.832H17.3041C16.8881 13.768 15.9601 15.304 14.5201 16.44C13.0801 17.56 11.3041 18.12 9.19207 18.12C7.52807 18.12 6.05607 17.76 4.77607 17.04C3.49607 16.304 2.50407 15.288 1.80007 13.992C1.11207 12.68 0.768066 11.184 0.768066 9.50399Z" fill="white"/>
<path d="M24.4756 4.84799V7.60799H29.8756V11.184H24.4756V14.232H30.5956V18H19.7716V1.07999H30.5956V4.84799H24.4756Z" fill="white"/>
<path d="M46.528 6.71999C46.528 7.74399 46.288 8.67999 45.808 9.52799C45.344 10.36 44.632 11.032 43.672 11.544C42.728 12.04 41.568 12.288 40.192 12.288H37.864V18H33.16V1.07999H40.192C41.552 1.07999 42.704 1.31999 43.648 1.79999C44.608 2.27999 45.328 2.94399 45.808 3.79199C46.288 4.63999 46.528 5.61599 46.528 6.71999ZM39.736 8.54399C41.064 8.54399 41.728 7.93599 41.728 6.71999C41.728 5.48799 41.064 4.87199 39.736 4.87199H37.864V8.54399H39.736Z" fill="white"/>
</svg>
