<svg width="16" height="17" viewBox="0 0 16 17" fill="none" xmlns="http://www.w3.org/2000/svg">
<path d="M10.925 11.15L9.8562 12.2188L6.7062 9.12502V3.27502H8.22495V8.45002L10.925 11.15ZM15.9875 8.16877C15.9875 12.5563 12.4437 16.1563 7.99995 16.1563C3.5562 16.1563 0.0124512 12.6125 0.0124512 8.16877C0.0124512 3.78127 3.61245 0.237524 7.99995 0.181274C12.3875 0.237524 15.9875 3.78127 15.9875 8.16877ZM14.4687 8.16877C14.4687 4.62502 11.5437 1.75627 7.99995 1.75627C4.4562 1.75627 1.5312 4.62502 1.5312 8.16877C1.5312 11.7125 4.39995 14.6375 7.99995 14.6375C11.5437 14.6375 14.4687 11.7688 14.4687 8.16877Z" fill="#5D7285"/>
</svg>
