<svg width="14" height="16" viewBox="0 0 14 16" fill="none" xmlns="http://www.w3.org/2000/svg">
<path d="M0.5 2.66667H4.66667V1.33333C4.66667 0.6 5.26667 0 6 0H8C8.73333 0 9.33333 0.6 9.33333 1.33333V2.66667H13.5C13.7667 2.66667 14 2.9 14 3.16667V4.16667C14 4.43333 13.7667 4.66667 13.5 4.66667H0.5C0.233333 4.66667 0 4.43333 0 4.16667V3.16667C0 2.9 0.233333 2.66667 0.5 2.66667ZM8 1.66667C8 1.46667 7.86667 1.33333 7.66667 1.33333H6.33333C6.13333 1.33333 6 1.46667 6 1.66667V2.66667H8V1.66667ZM1.83333 6H12.1667C12.4333 6 12.6667 6.23333 12.6667 6.5V14.3333C12.6667 15.2667 11.9333 16 11 16H3C2.06667 16 1.33333 15.2667 1.33333 14.3333V6.5C1.33333 6.23333 1.56667 6 1.83333 6ZM8 13.3333C8 13.5333 8.13333 13.6667 8.33333 13.6667H9C9.2 13.6667 9.33333 13.5333 9.33333 13.3333V8.66667C9.33333 8.46667 9.2 8.33333 9 8.33333H8.33333C8.13333 8.33333 8 8.46667 8 8.66667V13.3333ZM4.66667 13.3333C4.66667 13.5333 4.8 13.6667 5 13.6667H5.66667C5.86667 13.6667 6 13.5333 6 13.3333V8.66667C6 8.46667 5.86667 8.33333 5.66667 8.33333H5C4.8 8.33333 4.66667 8.46667 4.66667 8.66667V13.3333Z" fill="white"/>
</svg>
