<svg width="15" height="15" viewBox="0 0 15 15" fill="none" xmlns="http://www.w3.org/2000/svg">
<path fill-rule="evenodd" clip-rule="evenodd" d="M9.1715 1.85749L13.1596 5.83042V5.83025C13.1637 5.82468 13.1681 5.81817 13.1728 5.81118C13.1834 5.79548 13.1955 5.77735 13.2105 5.76186C13.436 5.52907 13.6618 5.29656 13.8876 5.06404C14.1699 4.77331 14.4522 4.48259 14.734 4.19133C15.0939 3.81941 15.0877 3.3238 14.7185 2.9586C13.808 2.05783 12.897 1.15775 11.9856 0.258009C11.6369 -0.0861753 11.1308 -0.0858308 10.7828 0.258009C10.3836 0.652452 9.98485 1.0474 9.58617 1.44232C9.46669 1.56068 9.34721 1.67903 9.22771 1.79737C9.21371 1.81136 9.2003 1.82604 9.18738 1.84019C9.182 1.84607 9.17671 1.85187 9.1715 1.85749ZM12.2507 6.70414L8.28776 2.75756C8.28281 2.76222 8.27713 2.76739 8.27102 2.77296C8.25881 2.78408 8.24487 2.79679 8.23154 2.8101L8.2284 2.81324C5.50399 5.53776 2.77958 8.26229 0.056887 10.9882C0.0251575 11.0201 0.0022226 11.0766 0.0022226 11.1217C-0.000273717 12.2618 -8.79813e-05 13.402 9.77563e-05 14.5423C0.000117308 14.6623 0.000136859 14.7824 0.000153283 14.9024C0.000153283 14.9225 0.00144193 14.9426 0.00276277 14.9632C0.00343412 14.9737 0.00411379 14.9843 0.0046368 14.9951C0.0145349 14.9958 0.0233589 14.9965 0.0314667 14.9972C0.0472306 14.9986 0.0602874 14.9997 0.073269 14.9997C0.225827 14.9997 0.378387 14.9998 0.530949 14.9998C1.6514 15 2.77195 15.0002 3.89236 14.9975C3.93409 14.9975 3.98513 14.9701 4.01583 14.9394C4.61592 14.3426 5.21446 13.744 5.8129 13.1455C5.90491 13.0535 5.99692 12.9615 6.08894 12.8695C8.116 10.8428 10.1429 8.81593 12.1696 6.78907C12.1886 6.77012 12.2069 6.7506 12.2252 6.73113C12.2337 6.72211 12.2421 6.71309 12.2507 6.70414Z" fill="white"/>
</svg>
