<svg width="16" height="17" viewBox="0 0 16 17" fill="none" xmlns="http://www.w3.org/2000/svg">
<path fill-rule="evenodd" clip-rule="evenodd" d="M0 0V2.74749C0.0177108 2.74874 0.0354216 2.75033 0.0531324 2.75193C0.0915044 2.75537 0.129876 2.75882 0.168248 2.75882C5.34345 2.75939 10.5184 2.75939 15.6936 2.75882C15.7319 2.75882 15.7703 2.75537 15.8087 2.75193C15.8264 2.75033 15.8441 2.74874 15.8618 2.74749V0H0ZM15.8618 3.3989V3.34225H15.8615C15.8431 3.34148 15.8246 3.34053 15.8061 3.33957C15.7636 3.33737 15.7209 3.33517 15.6783 3.33517C10.5039 3.33489 5.32928 3.33489 0.154936 3.33517C0.119019 3.33517 0.0829652 3.33737 0.0469652 3.33957C0.0312946 3.34052 0.0156343 3.34148 0 3.34225V3.3989C0.0888863 3.48637 0.177895 3.57372 0.266904 3.66107C0.480536 3.87071 0.694167 4.08036 0.906106 4.29169C1.87549 5.25821 2.84419 6.22525 3.81287 7.19226C4.08928 7.4682 4.3657 7.74414 4.64213 8.02007C4.7976 8.17519 4.95288 8.33053 5.10816 8.48587C5.44966 8.8275 5.79118 9.16915 6.13484 9.50853C6.20536 9.57821 6.22774 9.6493 6.22774 9.74532C6.22582 11.4183 6.22614 13.0914 6.22645 14.7646C6.22651 15.0691 6.22656 15.3735 6.22661 15.6779C6.22661 15.7391 6.23142 16.9388 6.23312 17L7.95923 15.8617C7.99366 15.8361 8.02783 15.8101 8.06202 15.784C8.13555 15.728 8.20915 15.6719 8.28553 15.6199C8.43236 15.5196 8.57961 15.4199 8.72684 15.3203C9.00504 15.1321 9.28319 14.9439 9.55844 14.7514C9.60347 14.72 9.63293 14.6359 9.6335 14.5758C9.63758 14.0059 9.6373 13.436 9.63703 12.8661C9.63696 12.7237 9.6369 12.5812 9.6369 12.4387C9.6369 12.247 9.6368 12.0553 9.63669 11.8636C9.63632 11.1447 9.63594 10.426 9.64086 9.70708C9.64114 9.63316 9.67966 9.54082 9.73178 9.4887C11.2412 7.98318 12.7538 6.48115 14.2665 4.97902C14.4233 4.82337 14.58 4.66772 14.7367 4.51206C14.9864 4.26432 15.2365 4.01709 15.4866 3.76985C15.6117 3.64622 15.7368 3.52259 15.8618 3.3989Z" fill="#4C6175"/>
</svg>
