<svg width="18" height="18" viewBox="0 0 18 18" fill="none" xmlns="http://www.w3.org/2000/svg">
<path d="M0 4.06464V8.12915H4.06451H8.12902V4.06464V0.000130653H4.06451H0V4.06464ZM6.38706 4.06464V6.38719H4.06451H1.74196V4.06464V1.74209H4.06451H6.38706V4.06464Z" fill="#5D7285"/>
<path d="M2.90308 4.06434V5.22571H4.06444H5.22581V4.06434V2.90297H4.06444H2.90308V4.06434Z" fill="#5D7285"/>
<path d="M9.87085 4.06464V8.12915H13.9354H17.9999V4.06464V0.000130653H13.9354H9.87085V4.06464ZM16.2579 4.06464V6.38719H13.9354H11.6128V4.06464V1.74209H13.9354H16.2579V4.06464Z" fill="#5D7285"/>
<path d="M12.7743 4.06434V5.22571H13.9357H15.097V4.06434V2.90297H13.9357H12.7743V4.06434Z" fill="#5D7285"/>
<path d="M0 13.9355V18H4.06451H8.12902V13.9355V9.87098H4.06451H0V13.9355ZM6.38706 13.9355V16.258H4.06451H1.74196V13.9355V11.6129H4.06451H6.38706V13.9355Z" fill="#5D7285"/>
<path d="M2.90308 13.9356V15.0969H4.06444H5.22581V13.9356V12.7742H4.06444H2.90308V13.9356Z" fill="#5D7285"/>
<path d="M9.87085 10.8871V11.9031H10.8869H11.903V12.9192V13.9353H10.8869H9.87085V14.9514V15.9675H10.8869H11.903V16.9836V18H12.9191H13.9352V16.9839V15.9678H14.9513H15.9673V16.9839V18H16.9834H17.9999V16.9839V15.9678H16.9838H15.9677V14.9518V13.9357H16.9838H17.9999V12.9196V11.9035H16.9838H15.9677V10.8874V9.87135H14.9516H13.9355V10.8874V11.9035H12.9195H11.9034V10.8874V9.87135H10.8873H9.87122V10.8871H9.87085ZM15.9675 12.9194V13.9355H14.9514H13.9354V14.9516V15.9677H12.9193H11.9032V14.9516V13.9355H12.9193H13.9354V12.9194V11.9033H14.9514H15.9675V12.9194Z" fill="#5D7285"/>
</svg>
