<svg width="18" height="18" viewBox="0 0 18 18" fill="none" xmlns="http://www.w3.org/2000/svg">
<path d="M9 0C6.555 0 6.24975 0.01125 5.28975 0.054C4.33125 0.099 3.67875 0.24975 3.105 0.4725C2.51325 0.702 2.01075 1.01025 1.5105 1.5105C1.01025 2.01075 0.70125 2.5125 0.4725 3.105C0.24975 3.67875 0.09825 4.33125 0.054 5.28975C0.009 6.24975 0 6.555 0 9C0 11.445 0.01125 11.7503 0.054 12.7103C0.099 13.668 0.24975 14.3212 0.4725 14.895C0.698469 15.4956 1.0527 16.0398 1.5105 16.4895C1.95996 16.9476 2.50417 17.3019 3.105 17.5275C3.6795 17.7495 4.332 17.9018 5.28975 17.946C6.24975 17.991 6.555 18 9 18C11.445 18 11.7503 17.9888 12.7103 17.946C13.668 17.901 14.3212 17.7495 14.895 17.5275C15.4955 17.3013 16.0396 16.9471 16.4895 16.4895C16.9478 16.0402 17.3021 15.4959 17.5275 14.895C17.7495 14.3212 17.9018 13.668 17.946 12.7103C17.991 11.7503 18 11.445 18 9C18 6.555 17.9888 6.24975 17.946 5.28975C17.901 4.332 17.7495 3.678 17.5275 3.105C17.3014 2.50441 16.9472 1.9603 16.4895 1.5105C16.0404 1.05198 15.4961 0.697642 14.895 0.4725C14.3212 0.24975 13.668 0.09825 12.7103 0.054C11.7503 0.009 11.445 0 9 0ZM9 1.62C11.4023 1.62 11.6888 1.632 12.6375 1.67325C13.515 1.7145 13.9913 1.86 14.3078 1.9845C14.7293 2.14725 15.0278 2.34225 15.3443 2.6565C15.6585 2.9715 15.8535 3.27075 16.0163 3.69225C16.1392 4.00875 16.2862 4.485 16.326 5.3625C16.3687 6.312 16.3785 6.597 16.3785 9C16.3785 11.403 16.3673 11.6888 16.323 12.6375C16.2773 13.515 16.131 13.9913 16.0072 14.3078C15.8608 14.6983 15.6307 15.0521 15.333 15.3443C15.0421 15.6422 14.6886 15.8718 14.298 16.0163C13.983 16.1392 13.4993 16.2862 12.6217 16.326C11.6663 16.3687 11.385 16.3785 8.9775 16.3785C6.56925 16.3785 6.288 16.3673 5.33325 16.323C4.455 16.2773 3.97125 16.131 3.65625 16.0072C3.26543 15.8626 2.91201 15.6322 2.622 15.333C2.32094 15.0441 2.09004 14.69 1.947 14.298C1.82325 13.983 1.67775 13.4993 1.632 12.6217C1.59825 11.6768 1.58625 11.385 1.58625 8.98875C1.58625 6.59175 1.59825 6.29925 1.632 5.343C1.67775 4.4655 1.82325 3.9825 1.947 3.6675C2.1045 3.24 2.30625 2.9475 2.622 2.63175C2.93625 2.3175 3.2295 2.115 3.65625 1.95825C3.97125 1.83375 4.4445 1.6875 5.322 1.6425C6.27825 1.60875 6.5595 1.5975 8.96625 1.5975L9 1.62ZM9 4.3785C7.7743 4.3785 6.59881 4.86541 5.73211 5.73211C4.86541 6.59881 4.3785 7.7743 4.3785 9C4.3785 10.2257 4.86541 11.4012 5.73211 12.2679C6.59881 13.1346 7.7743 13.6215 9 13.6215C10.2257 13.6215 11.4012 13.1346 12.2679 12.2679C13.1346 11.4012 13.6215 10.2257 13.6215 9C13.6215 7.7743 13.1346 6.59881 12.2679 5.73211C11.4012 4.86541 10.2257 4.3785 9 4.3785ZM9 12C7.3425 12 6 10.6575 6 9C6 7.3425 7.3425 6 9 6C10.6575 6 12 7.3425 12 9C12 10.6575 10.6575 12 9 12ZM14.8845 4.19625C14.8741 4.47572 14.7557 4.74027 14.5543 4.9343C14.3529 5.12833 14.0842 5.23674 13.8045 5.23674C13.5248 5.23674 13.2561 5.12833 13.0547 4.9343C12.8533 4.74027 12.7349 4.47572 12.7245 4.19625C12.7245 3.90982 12.8383 3.63511 13.0408 3.43257C13.2434 3.23004 13.5181 3.11625 13.8045 3.11625C14.0909 3.11625 14.3656 3.23004 14.5682 3.43257C14.7707 3.63511 14.8845 3.90982 14.8845 4.19625Z" fill="#5D7285"/>
</svg>
