<svg width="13" height="12" viewBox="0 0 13 12" fill="none" xmlns="http://www.w3.org/2000/svg">
<g clip-path="url(#clip0_420_3806)">
<path d="M4.94694 8.38539C5.01708 8.38539 5.06912 8.38539 5.12086 8.38539C6.83566 8.38709 8.55046 8.38652 10.2653 8.39219C10.5663 8.39332 10.8684 8.40862 11.1677 8.43808C11.6262 8.48341 11.8746 8.96103 11.8093 9.35706C11.7869 9.49332 11.7346 9.63072 11.6673 9.75225C11.5169 10.0248 11.2602 10.1157 10.9581 10.1191C9.88551 10.1304 8.81264 10.1469 7.74007 10.1576C6.84458 10.1664 5.9488 10.1698 5.05331 10.176C5.02053 10.176 4.98776 10.1809 4.92653 10.1854C4.92653 10.3386 4.92969 10.4888 4.92595 10.6389C4.91704 11.0115 4.90526 11.3843 4.89318 11.7568C4.89174 11.8032 4.88139 11.8497 4.87392 11.8959C4.8561 12.0072 4.79544 12.0225 4.70115 11.9732C4.43523 11.8344 4.16356 11.7058 3.90282 11.5582C2.68133 10.8653 1.46071 10.1707 0.24439 9.46924C-0.0830466 9.28029 -0.0804593 9.22505 0.248127 9.03836C1.68867 8.22052 3.13152 7.40635 4.57581 6.59502C4.85092 6.44035 4.88427 6.46556 4.89376 6.78142C4.90641 7.20579 4.9179 7.63043 4.93084 8.05508C4.934 8.1582 4.9409 8.26131 4.94694 8.38567V8.38539Z" fill="#4C6175"/>
<path d="M8.05913 1.90394C8.05913 1.7776 8.05769 1.66995 8.05913 1.5623C8.06689 1.10479 8.07494 0.647284 8.08442 0.189494C8.08845 -0.00399078 8.16003 -0.046767 8.33769 0.0495503C8.91926 0.365414 9.50226 0.678729 10.0772 1.00564C10.975 1.51612 11.8682 2.03482 12.7605 2.55493C13.0773 2.73964 13.0808 2.80422 12.764 2.98354C11.3223 3.79884 9.87771 4.60904 8.43112 5.41556C8.15284 5.5708 8.11777 5.55465 8.09966 5.24303C8.07178 4.76286 8.06976 4.28099 8.05711 3.79998C8.05568 3.74927 8.05711 3.69828 8.05711 3.6317C7.98812 3.6317 7.93235 3.6317 7.87658 3.6317C6.1382 3.63114 4.39983 3.6317 2.66117 3.62887C2.40761 3.6283 2.15349 3.61754 1.90051 3.60026C1.51931 3.5742 1.22407 3.28553 1.1867 2.90904C1.1683 2.72434 1.18066 2.54388 1.26576 2.37108C1.42272 2.05182 1.69122 1.93312 2.03476 1.93114C3.26545 1.92349 4.49585 1.91159 5.72654 1.90479C6.44494 1.90082 7.16335 1.90394 7.88175 1.90394C7.93379 1.90394 7.98582 1.90394 8.05941 1.90394H8.05913Z" fill="#4C6175"/>
</g>
<defs>
<clipPath id="clip0_420_3806">
<rect width="13" height="12" fill="white"/>
</clipPath>
</defs>
</svg>
