<svg width="37" height="38" viewBox="0 0 37 38" fill="none" xmlns="http://www.w3.org/2000/svg">
<path d="M0.953735 16.1147C0.953735 7.36479 8.04692 0.271606 16.7968 0.271606V22.1568C16.7968 30.9067 9.70361 37.9999 0.953735 37.9999V16.1147Z" fill="#F38418"/>
<path d="M36.3132 8.88072C36.3132 4.1261 32.4589 0.271729 27.7042 0.271729C22.9496 0.271729 19.0953 4.1261 19.0953 8.88072V9.37776C19.0953 14.1324 22.9496 17.9868 27.7042 17.9868C32.4589 17.9868 36.3132 14.1324 36.3132 9.37776V8.88072Z" fill="#4CBFFF"/>
<path d="M36.3132 28.8939C36.3132 24.1393 32.4589 20.2849 27.7042 20.2849C22.9496 20.2849 19.0953 24.1393 19.0953 28.8939V29.3909C19.0953 34.1456 22.9496 37.9999 27.7042 37.9999C32.4589 37.9999 36.3132 34.1456 36.3132 29.3909V28.8939Z" fill="#12A474"/>
</svg>
