<svg width="20" height="16" viewBox="0 0 20 16" fill="none" xmlns="http://www.w3.org/2000/svg">
<path fill-rule="evenodd" clip-rule="evenodd" d="M1.8215 3.51113C2.74905 3.49212 3.52942 2.69531 3.52158 1.75528C3.51311 0.75187 2.73211 -0.00733999 1.71604 5.35391e-05C0.767097 0.00702458 -0.0092502 0.815665 0.00430305 1.79731C0.0174328 2.73841 0.806063 3.53226 1.8215 3.51113ZM19.4824 2.99464V0.513578C19.4715 0.512861 19.4616 0.512047 19.4522 0.511284C19.434 0.509799 19.4182 0.508508 19.4024 0.508508L14.4485 0.508719H9.34652C8.12906 0.508719 6.91181 0.508719 5.69455 0.507241C5.62552 0.507029 5.58422 0.513156 5.58465 0.601244C5.58803 1.36489 5.58803 2.12875 5.58613 2.89239C5.58592 2.9714 5.6037 3.00224 5.69117 3.00224C6.657 3.00034 7.62295 3.00058 8.58885 3.00081L9.55469 3.00097H14.6778C16.2445 3.00097 17.811 3.00076 19.3776 3.00034C19.4006 3.00034 19.4236 2.99869 19.4475 2.99697C19.4589 2.99615 19.4705 2.99532 19.4824 2.99464ZM18.4664 9.07613H19.4793V9.07592V6.59402H5.59376C5.59276 6.60718 5.59159 6.61941 5.59049 6.63102C5.5883 6.6539 5.58635 6.6744 5.58635 6.69499L5.58627 7.37098C5.58632 7.906 5.58638 8.44105 5.58444 8.976C5.58423 9.05607 5.61006 9.07825 5.68757 9.07761C6.00385 9.07488 6.32027 9.07505 6.63672 9.07521L6.86268 9.07529L9.27035 9.07568H9.2704H9.27045H9.2705H9.27055C10.4725 9.07591 11.6743 9.07613 12.8763 9.07613H18.4664ZM19.482 12.695V15.1821L19.4501 15.1841C19.4273 15.1855 19.4045 15.187 19.3817 15.187C17.6695 15.187 15.9574 15.1868 14.2452 15.1865L10.8183 15.1862C9.54501 15.1862 8.27168 15.1865 6.99836 15.1869L5.72696 15.1872H5.72635C5.65732 15.1872 5.62254 15.1872 5.605 15.1698C5.58719 15.1521 5.58719 15.1165 5.58719 15.0447V15.0421L5.5875 14.6489V14.6487C5.58803 14.0372 5.58856 13.4257 5.58508 12.8143C5.58444 12.7135 5.61727 12.6931 5.71129 12.6931C7.7357 12.6951 9.75996 12.695 11.7843 12.695H11.7843H11.7843H11.7844L12.7185 12.695H19.366H19.482ZM3.52222 13.9472C3.50952 14.9512 2.71729 15.7206 1.69762 15.6933C0.735971 15.6676 -0.0221644 14.8522 0.000494974 13.8788C0.0223072 12.9446 0.827244 12.173 1.78677 12.1865C2.75689 12.2002 3.53429 12.9888 3.52201 13.9472H3.52222ZM3.52392 7.77215C3.50083 6.84543 2.70564 6.06805 1.76327 6.07777L1.76348 6.07798C0.750371 6.08854 -0.00776416 6.86824 0.00282432 7.88834C0.0125657 8.82119 0.830632 9.60385 1.79503 9.58568C2.80835 9.56645 3.54764 8.72824 3.52392 7.77215Z" fill="#4C6175"/>
</svg>
