<svg width="15" height="16" viewBox="0 0 15 16" fill="none" xmlns="http://www.w3.org/2000/svg">
<path d="M9.86287 11.7632C8.18227 12.9048 6.3714 13.2281 4.43816 12.6311C2.92989 12.1652 1.76091 11.2163 0.930884 9.83955C-0.698488 7.13658 -0.139132 3.554 2.21939 1.53337C4.67784 -0.573209 8.15318 -0.501265 10.5092 1.70102C12.8279 3.86815 13.3588 7.76683 11.0837 10.6176C11.227 10.7722 11.3705 10.9288 11.5156 11.0841C12.5898 12.2339 13.6655 13.3821 14.738 14.5335C15.1102 14.933 15.0814 15.4975 14.6798 15.8184C14.3368 16.0925 13.8856 16.0551 13.5662 15.7156C12.8222 14.9242 12.082 14.1286 11.3402 13.3349C10.876 12.8384 10.4118 12.3417 9.94761 11.8455C9.92231 11.8185 9.89449 11.7941 9.86255 11.7632H9.86287ZM6.27053 1.69158C3.72197 1.69125 1.63379 3.84276 1.63759 6.46531C1.64138 9.08722 3.71723 11.2237 6.26389 11.226C8.82194 11.2286 10.9003 9.09406 10.9006 6.46434C10.9009 3.83299 8.82416 1.69223 6.27053 1.69158Z" fill="#5D7285"/>
</svg>
