<svg width="15" height="16" viewBox="0 0 15 16" fill="none" xmlns="http://www.w3.org/2000/svg">
<path fill-rule="evenodd" clip-rule="evenodd" d="M5.3564 8.01536L5.35654 6.10918V6.10731C5.35673 4.41321 5.35691 2.7192 5.35578 1.025C5.35578 0.626968 5.45148 0.297081 5.74014 0.114676C5.84332 0.0495803 5.96676 0.00787826 6.08117 0.00686114C7.00606 -0.0016149 7.93127 -0.0016149 8.85616 0.00347072C9.30162 0.00618305 9.5934 0.40693 9.59714 1.01449C9.60017 1.51334 9.59944 2.01219 9.59871 2.51116V2.51122C9.59839 2.73083 9.59807 2.95046 9.59807 3.17012V3.20582C9.59807 7.10883 9.59807 11.0118 9.59776 14.9148C9.59776 15.3285 9.50611 15.6899 9.19407 15.877C9.07593 15.9479 8.93628 15.9899 8.80597 15.9913C8.28855 15.997 7.77103 15.9967 7.25345 15.9963H7.25345C6.88234 15.996 6.51121 15.9958 6.14008 15.9977C5.64444 16.0001 5.34923 15.4705 5.35173 14.9657C5.36 13.2587 5.35879 11.5516 5.35758 9.84461C5.35715 9.23497 5.35671 8.62533 5.35671 8.01569L5.3564 8.01536ZM14.9991 9.90522V14.9193C14.9991 15.6218 14.7082 15.9961 14.163 15.9964C13.9151 15.9964 13.6672 15.9966 13.4193 15.9968C12.7997 15.9972 12.18 15.9976 11.5604 15.9954C11.2693 15.9944 11.0111 15.8785 10.8702 15.5259C10.8063 15.3658 10.764 15.1712 10.7636 14.9922C10.7574 11.5957 10.758 8.19883 10.7602 4.80231C10.7605 4.20492 11.0598 3.8174 11.5364 3.81231C12.4351 3.80282 13.3338 3.80621 14.2325 3.81231C14.7104 3.81536 15.0009 4.23238 15 4.83045C14.9982 6.05214 14.9985 7.27399 14.9988 8.49577L14.9991 9.90522ZM4.23965 13.22C4.23957 12.9682 4.23948 12.7166 4.23948 12.4649V12.4646C4.23948 12.216 4.23926 11.9675 4.23905 11.7189C4.23853 11.1286 4.23801 10.5381 4.24042 9.94785C4.24291 9.35012 3.95488 8.93073 3.47451 8.92632C2.57081 8.91818 1.66711 8.91547 0.763416 8.92733C0.296449 8.93344 0.00217854 9.32605 0.00155509 9.91293C-0.000627 11.6108 -0.00125045 13.3088 0.00467236 15.007C0.00498409 15.1694 0.0317926 15.343 0.0822924 15.4912C0.214465 15.8794 0.483173 15.9923 0.78399 15.9943C1.6721 15.9997 2.56021 16.0008 3.44832 15.9913C3.57893 15.9899 3.7189 15.9502 3.83736 15.8804C4.12882 15.7082 4.23855 15.3793 4.23917 14.9816C4.24005 14.3945 4.23985 13.8072 4.23965 13.22Z" fill="#4C6175"/>
</svg>
