<svg width="11" height="4" viewBox="0 0 11 4" fill="none" xmlns="http://www.w3.org/2000/svg">
<path d="M1.936 3.112C1.60533 3.112 1.328 3 1.104 2.776C0.88 2.552 0.768 2.27467 0.768 1.944C0.768 1.61333 0.88 1.336 1.104 1.112C1.328 0.888 1.60533 0.776 1.936 0.776C2.256 0.776 2.528 0.888 2.752 1.112C2.976 1.336 3.088 1.61333 3.088 1.944C3.088 2.27467 2.976 2.552 2.752 2.776C2.528 3 2.256 3.112 1.936 3.112ZM5.79538 3.112C5.46471 3.112 5.18738 3 4.96338 2.776C4.73938 2.552 4.62738 2.27467 4.62738 1.944C4.62738 1.61333 4.73938 1.336 4.96338 1.112C5.18738 0.888 5.46471 0.776 5.79538 0.776C6.11538 0.776 6.38738 0.888 6.61138 1.112C6.83538 1.336 6.94738 1.61333 6.94738 1.944C6.94738 2.27467 6.83538 2.552 6.61138 2.776C6.38738 3 6.11538 3.112 5.79538 3.112ZM9.65475 3.112C9.32408 3.112 9.04675 3 8.82275 2.776C8.59875 2.552 8.48675 2.27467 8.48675 1.944C8.48675 1.61333 8.59875 1.336 8.82275 1.112C9.04675 0.888 9.32408 0.776 9.65475 0.776C9.97475 0.776 10.2468 0.888 10.4708 1.112C10.6948 1.336 10.8068 1.61333 10.8068 1.944C10.8068 2.27467 10.6948 2.552 10.4708 2.776C10.2468 3 9.97475 3.112 9.65475 3.112Z" fill="white"/>
</svg>
