<svg width="15" height="12" viewBox="0 0 15 12" fill="none" xmlns="http://www.w3.org/2000/svg">
<path fill-rule="evenodd" clip-rule="evenodd" d="M1.70589 3.22243C1.84963 3.22223 1.99339 3.22203 2.1372 3.22203V3.22248C2.26848 3.22248 2.39977 3.22268 2.53106 3.22288C2.84614 3.22335 3.16123 3.22382 3.47631 3.22158C3.9395 3.2184 4.27178 2.91167 4.2836 2.45111C4.29769 1.8998 4.29678 1.34804 4.28496 0.797185C4.27541 0.338896 3.94995 0.013103 3.4904 0.007658C2.59766 -0.00232453 1.70492 -0.00277828 0.812173 0.007658C0.347165 0.013103 0.0157959 0.352055 0.00715938 0.81715C-0.00284079 1.34577 -0.00147713 1.87439 0.00670483 2.40301C0.0139777 2.89488 0.351256 3.21931 0.843537 3.22203C1.1311 3.22324 1.41846 3.22284 1.70589 3.22243ZM6.2536 3.22203H10.1828V3.22248L11.3753 3.22273C12.3027 3.22302 13.2299 3.2233 14.1574 3.22203C14.6633 3.22112 14.9947 2.89034 14.9978 2.38395C15.001 1.87757 15.0006 1.37118 14.9978 0.864793C14.9956 0.348425 14.6651 0.00629642 14.1501 0.00584267C11.5005 0.00221266 8.85046 0.00221266 6.20087 0.00584267C5.69405 0.00675017 5.3654 0.34661 5.36268 0.849366C5.36086 1.2423 5.36137 1.63493 5.36188 2.02775V2.02786V2.02798V2.02809V2.0282L5.36222 2.32315C5.36313 2.91121 5.67041 3.22203 6.2536 3.22203ZM8.85413 11.7963L10.1565 11.7962L10.1555 11.7971C10.6401 11.7969 11.1247 11.797 11.6093 11.7971H11.6093H11.6093H11.6093H11.6094H11.6112C12.4585 11.7972 13.3058 11.7974 14.1529 11.7962C14.6588 11.7953 14.9929 11.4636 14.9965 10.9595C15.0002 10.4454 15.0002 9.93174 14.9965 9.41764C14.9929 8.9167 14.6579 8.57911 14.1529 8.57865C11.5033 8.57593 8.85325 8.57593 6.20366 8.57865C5.69684 8.57911 5.36501 8.91488 5.36228 9.41764C5.36026 9.86095 5.36112 10.3046 5.36197 10.748L5.36228 10.9141C5.36319 11.4781 5.68274 11.7962 6.25003 11.7962C7.1179 11.7965 7.98598 11.7964 8.85413 11.7963ZM10.1964 4.29966L11.4909 4.29946H11.4909H11.491H11.491C12.3539 4.29926 13.2167 4.29906 14.0796 4.29966C14.6983 4.30011 14.9978 4.60095 14.9983 5.2176C14.9987 5.68587 14.9992 6.1546 14.9983 6.62287C14.9969 7.18824 14.6819 7.50904 14.1128 7.51086C13.3018 7.51377 12.4907 7.51322 11.6797 7.51266C11.3553 7.51244 11.0308 7.51222 10.7064 7.51222H6.32359C5.64903 7.51222 5.36221 7.22182 5.36221 6.54301C5.36221 6.39899 5.36204 6.25492 5.36187 6.11084V6.11079V6.11074V6.11069V6.11051C5.36148 5.78623 5.36109 5.46188 5.36266 5.13774C5.36539 4.62682 5.68358 4.30329 6.1995 4.30148C7.15115 4.29856 8.10279 4.29911 9.05444 4.29967C9.43509 4.29989 9.81574 4.30011 10.1964 4.30011V4.29966ZM1.74601 11.7966H1.74596C1.44424 11.797 1.14243 11.7975 0.84084 11.7957C0.353105 11.7925 0.014008 11.4626 0.00628058 10.9721C-0.00190137 10.4512 -0.000992268 9.92983 0.00628058 9.40892C0.0130989 8.91978 0.350377 8.58219 0.837204 8.57901C1.71495 8.57357 2.59269 8.57357 3.47043 8.57901C3.94362 8.58219 4.27544 8.90163 4.28544 9.37081C4.29726 9.9144 4.29726 10.4585 4.28544 11.002C4.27544 11.4853 3.94271 11.7929 3.45134 11.7957C3.15277 11.7972 2.85421 11.7968 2.55579 11.7965H2.55544H2.55535C2.42276 11.7963 2.2902 11.7961 2.15768 11.7961H2.15723C2.02019 11.7961 1.88311 11.7963 1.74601 11.7966ZM2.56242 4.2992C2.42839 4.29966 2.29436 4.30013 2.16033 4.30013L2.15942 4.30058C2.02301 4.30058 1.88664 4.30012 1.75029 4.29965C1.44047 4.29859 1.13072 4.29753 0.820765 4.30194C0.339848 4.30875 0.0125693 4.63409 0.00529649 5.11688C-0.00243091 5.63779 -0.00106725 6.15869 0.00529649 6.6796C0.0112057 7.15468 0.319847 7.49726 0.789401 7.50543C1.69669 7.52131 2.60489 7.52085 3.51217 7.50543C3.96945 7.49771 4.274 7.17827 4.284 6.72271C4.29628 6.17911 4.29582 5.63552 4.28491 5.09193C4.27491 4.61458 3.95627 4.3083 3.47626 4.30149C3.17165 4.29708 2.86703 4.29814 2.56242 4.2992Z" fill="#4C6175"/>
</svg>
