<svg width="18" height="19" viewBox="0 0 18 19" fill="none" xmlns="http://www.w3.org/2000/svg">
<path d="M17.8653 18.0048C17.777 18.2047 17.6504 18.385 17.4927 18.5352C17.3399 18.6818 17.161 18.7979 16.9655 18.8773C16.7607 18.9599 16.5421 19.0015 16.3217 19H1.6795C1.45988 19.0014 1.24208 18.9597 1.03816 18.8773C0.840616 18.7973 0.660008 18.6799 0.506033 18.5315C0.346303 18.3796 0.219008 18.1964 0.131983 17.993C0.0449572 17.7895 4.16991e-05 17.5703 1.80997e-07 17.3487V9.07934C-0.000105869 8.85362 0.0463915 8.63037 0.13652 8.42385C0.224985 8.22401 0.351584 8.04377 0.509067 7.89345C0.661865 7.74677 0.840776 7.63067 1.03634 7.5513C1.24066 7.46776 1.45908 7.42507 1.6795 7.42559H5.34005V9.08118H1.6795L1.63642 11.9754V17.3511H16.3199L16.3636 16.9372V9.07934H12.6593V7.42375H16.3199C16.5397 7.42228 16.7577 7.46393 16.9618 7.54639C17.1592 7.62625 17.3397 7.74365 17.4933 7.89222C17.6533 8.0439 17.7808 8.22712 17.868 8.43057C17.9551 8.63401 18 8.85336 18 9.07504V17.345C18.0012 17.572 17.9554 17.7968 17.8653 18.0048ZM9.82093 14.8665H8.18269V3.72138H5.72776L9.00423 0L12.2771 3.72138H9.82093V14.8665Z" fill="white"/>
</svg>
