<svg width="358" height="255" viewBox="0 0 358 255" fill="none" xmlns="http://www.w3.org/2000/svg">
<g clip-path="url(#clip0_1364_3222)">
<g clip-path="url(#clip1_1364_3222)">
<path d="M0 64.2136C0 56.4816 6.26801 50.2136 14 50.2136H344.145C351.877 50.2136 358.145 56.4816 358.145 64.2136V319.215H0V64.2136Z" fill="#09234F"/>
<path d="M107 86.1428C107 86.926 107.319 87.6511 107.841 88.1588C108.364 88.6809 109.075 89 109.858 89H171.142C172.709 89 174 87.7092 174 86.1282C174 85.345 173.681 84.6198 173.159 84.1122C172.636 83.5901 171.925 83.271 171.142 83.271H168.24C167.094 80.6168 164.453 78.7603 161.378 78.7603C159.303 78.7603 157.431 79.6015 156.082 80.9649C154.283 77.9046 150.946 75.845 147.13 75.845C146.086 75.845 145.07 76.0046 144.127 76.2947C142.139 72.5527 138.193 70 133.652 70C128.197 70 123.612 73.684 122.219 78.6878C121.218 78.1802 120.087 77.9046 118.882 77.9046C115.487 77.9046 112.615 80.1817 111.715 83.2855H109.873C108.306 83.2855 107.015 84.5763 107.015 86.1573L107 86.1428Z" fill="url(#paint0_linear_1364_3222)"/>
<path d="M39 172.228C39 173.266 39.4237 174.202 40.1104 174.889C40.7825 175.576 41.7322 176 42.7696 176H123.245C125.305 176 127 174.304 127 172.228C127 171.19 126.576 170.254 125.89 169.567C125.217 168.88 124.268 168.456 123.23 168.456H119.432C117.927 164.962 114.464 162.52 110.417 162.52C107.699 162.52 105.245 163.632 103.462 165.415C101.095 161.395 96.7121 158.69 91.7153 158.69C90.3419 158.69 89.0123 158.895 87.7704 159.275C85.1551 154.348 79.9829 151 74.0071 151C66.8479 151 60.8137 155.839 59.002 162.433C57.687 161.775 56.1967 161.395 54.6188 161.395C50.1479 161.395 46.3784 164.377 45.1949 168.471H42.7696C40.7094 168.471 39.0146 170.167 39.0146 172.243L39 172.228Z" fill="url(#paint1_linear_1364_3222)"/>
<path d="M199.467 258.869C199.467 260.34 200.059 261.667 201.027 262.635C201.977 263.604 203.321 264.196 204.773 264.196H318.596C321.517 264.196 323.919 261.793 323.919 258.869C323.919 257.399 323.328 256.072 322.36 255.103C321.41 254.135 320.065 253.543 318.614 253.543H313.236C311.103 248.612 306.21 245.15 300.492 245.15C296.656 245.15 293.178 246.711 290.651 249.239C287.299 243.554 281.115 239.734 274.035 239.734C272.081 239.734 270.217 240.021 268.442 240.559C264.732 233.583 257.418 228.849 248.976 228.849C238.848 228.849 230.316 235.699 227.753 245.007C225.888 244.074 223.773 243.536 221.551 243.536C215.223 243.536 209.9 247.751 208.233 253.543H204.809C201.887 253.543 199.485 255.946 199.485 258.869H199.467Z" fill="url(#paint2_linear_1364_3222)"/>
<path d="M86.8277 261.972C86.8277 263.694 86.1286 265.254 84.9993 266.384C83.8701 267.513 82.3106 268.213 80.5898 268.213H-52.9143C-56.3379 268.231 -59.1521 265.415 -59.1521 261.972C-59.1521 260.268 -58.453 258.69 -57.3238 257.56C-56.1945 256.43 -54.635 255.731 -52.9143 255.731H-46.6047C-44.1132 249.939 -38.3593 245.886 -31.6554 245.886C-27.1384 245.886 -23.0694 247.715 -20.1118 250.692C-16.1863 244.021 -8.92674 239.537 -0.627547 239.537C1.64891 239.537 3.85366 239.878 5.93294 240.506C10.2707 232.328 18.8567 226.769 28.7692 226.769C40.6533 226.769 50.6554 234.803 53.6667 245.724C55.8536 244.63 58.3272 244.003 60.9442 244.003C68.3651 244.003 74.6029 248.952 76.5747 255.731H80.5898C84.0135 255.731 86.8277 258.547 86.8277 261.972Z" fill="url(#paint3_linear_1364_3222)"/>
<path d="M-2.98554 123.421C-2.98554 124.945 -2.3638 126.34 -1.3372 127.361C-0.325056 128.382 1.07748 129 2.61015 129H122.404C125.484 129 128 126.498 128 123.421C128 121.896 127.378 120.501 126.352 119.48C125.34 118.459 123.937 117.841 122.404 117.841H116.736C114.495 112.679 109.333 109.055 103.318 109.055C99.2696 109.055 95.6115 110.694 92.9654 113.34C89.4374 107.387 82.9308 103.389 75.4699 103.389C73.4167 103.389 71.4502 103.691 69.585 104.252C65.681 96.9611 57.9887 92 49.0964 92C38.4255 92 29.4608 99.1613 26.7569 108.911C24.7905 107.933 22.5783 107.372 20.2214 107.372C13.5702 107.372 7.96004 111.787 6.19602 117.841H2.59569C-0.484108 117.841 -3 120.343 -3 123.421H-2.98554Z" fill="url(#paint4_linear_1364_3222)"/>
<path d="M277.904 227.5C278.159 226.161 278.349 224.805 278.445 223.419C279.51 207.897 269.797 194.11 255.618 189.288C255.825 188.61 255.952 187.901 255.999 187.16C256.349 182.165 252.947 177.769 248.178 176.682C252.709 159.127 265.934 143.055 269.304 138.989C264.901 136.137 260.355 134.057 256.095 131C243.712 159.931 223.19 175.153 213.652 183.442C212.174 182.37 210.378 181.692 208.406 181.566C202.811 181.188 197.963 185.38 197.581 190.926C197.518 191.762 197.581 192.565 197.708 193.353C188.934 193.763 181.494 201.941 180.032 208.213C176.582 206.432 172.72 205.313 168.603 205.03C157.698 204.289 147.779 209.615 142.231 218.124C139.64 222.095 137.987 226.744 137.637 231.802C137.51 233.583 137.558 235.332 137.748 237.033C137.589 237.033 137.43 237.002 137.271 236.986C128.37 236.387 120.644 243.053 120.04 251.893C119.786 255.47 120.755 258.842 122.568 261.647C125.238 265.76 129.768 268.612 135.062 268.974C142.469 269.478 149.066 264.94 151.419 258.322C155.298 260.686 159.78 262.167 164.629 262.498C172.084 263.002 179.062 260.67 184.515 256.447C185.786 255.47 186.963 254.383 188.044 253.201C190.476 255.044 193.162 256.557 196.071 257.707C198.758 258.763 201.619 259.504 204.623 259.851C205.18 259.914 205.736 259.961 206.308 260.008C215.576 260.638 224.239 257.518 230.756 251.94C232.696 252.791 234.746 253.484 236.86 253.957C236.606 255.297 236.415 256.652 236.32 258.038C236.034 262.277 236.543 266.374 237.719 270.203C240.373 278.76 246.382 285.945 254.346 290.105C258.416 292.248 262.994 293.588 267.89 293.919C271.339 294.155 274.693 293.871 277.904 293.131C287.267 290.972 295.231 284.968 299.857 276.759L309.013 273.575L316.897 274.568C318.916 245.385 290.653 228.099 277.92 227.532L277.904 227.5Z" fill="url(#paint5_linear_1364_3222)"/>
<path d="M302.32 121.463C303.18 123.956 303.467 126.718 303.342 129.587C302.696 143.862 291.924 161.007 291.924 161.007C292.282 161.114 307.446 165.418 322.252 151.771C330.032 144.615 333.294 135.039 334.638 127.471C334.889 126.09 334.244 125.014 333.294 124.422C332.613 123.992 331.753 123.83 330.964 124.028C330.265 124.189 329.602 124.62 329.136 125.373L330.068 104.283L330.767 88.4836C315.871 99.71 302.32 121.481 302.32 121.481V121.463Z" fill="url(#paint6_linear_1364_3222)"/>
<path d="M257.974 93.9712C255.357 94.294 252.758 95.2804 250.248 96.6792C237.755 103.619 227.215 120.889 227.215 120.889C226.964 120.602 216.352 108.946 221.981 89.6134C224.938 79.4631 232.055 72.2717 238.221 67.6987C239.35 66.8738 240.605 66.9455 241.555 67.5373C242.236 67.9677 242.774 68.6492 242.953 69.4562C243.114 70.1556 243.025 70.9447 242.559 71.6979L261.021 61.4579L274.841 53.8003C271.435 72.1462 257.992 93.9712 257.992 93.9712H257.974Z" fill="url(#paint7_linear_1364_3222)"/>
<path d="M329.584 90.1156C326.16 95.657 323.328 100.015 320.191 104.05C317.054 108.067 313.613 111.779 308.988 115.994C308.845 116.137 308.683 116.263 308.54 116.388L300.653 122.665L291.924 129.587L275.325 142.768L250.84 127.579L251.342 125.229L255.249 106.848L257.562 95.944C260.448 82.189 265.7 68.7927 273.138 56.5621C273.353 56.2214 273.569 55.8627 273.784 55.522C284.108 38.8439 295.562 27.0437 306.299 18.6867C307.07 18.0949 307.823 17.521 308.576 16.9471C310.386 15.6021 312.179 14.3647 313.935 13.217C314.688 12.7148 315.441 12.2306 316.194 11.7823C316.57 11.5492 316.947 11.316 317.323 11.0829C322.127 8.15975 326.626 5.936 330.587 4.23232C335.23 2.24171 339.155 0.986368 342.041 0.21523C345.196 -0.645576 348.082 1.14777 348.709 4.35786C349.803 9.80963 351.004 19.1888 349.982 31.3477C349.946 31.8319 349.892 32.3161 349.857 32.8003C349.767 33.6611 349.677 34.5399 349.57 35.4365C349.319 37.5168 348.996 39.6688 348.602 41.8926C348.44 42.7892 348.279 43.7038 348.082 44.6185C345.393 57.943 339.926 73.4554 329.602 90.1156H329.584Z" fill="url(#paint8_linear_1364_3222)"/>
<path d="M283.983 135.864L275.307 142.75C274.07 142.392 272.869 141.979 271.686 141.567C270.683 141.208 269.697 140.813 268.729 140.401C265.287 138.93 262.079 137.173 259.121 135.093C256.074 132.941 253.296 130.448 250.804 127.579L253.116 116.729C256.432 120.208 259.981 123.274 263.782 125.964C268.263 129.139 273.085 131.757 278.247 133.819C279.107 134.16 279.968 134.501 280.846 134.806C281.868 135.182 282.907 135.523 283.965 135.846L283.983 135.864Z" fill="url(#paint9_linear_1364_3222)"/>
<path d="M256.97 148.005C256.343 148.471 255.608 148.435 255.052 148.094C254.497 147.754 254.138 147.108 254.281 146.337C259.587 117.984 288.697 84.0181 301.083 70.6219C301.711 69.9404 302.589 69.9404 303.216 70.3349C303.844 70.7295 304.238 71.5185 303.897 72.3793C297.409 89.434 279.968 130.627 256.97 148.005Z" fill="url(#paint10_linear_1364_3222)"/>
<path d="M329.602 58.3374C324.905 65.9054 314.975 68.2546 307.393 63.5561C299.828 58.8575 297.48 48.9224 302.177 41.3365C306.873 33.7686 316.803 31.4193 324.385 36.1179C331.95 40.8165 334.298 50.7516 329.602 58.3374Z" fill="url(#paint11_linear_1364_3222)"/>
<path d="M326.733 56.562C326.733 56.562 326.68 56.6516 326.644 56.7054C322.933 62.5338 315.226 64.3451 309.311 60.7763C309.257 60.7405 309.221 60.7225 309.167 60.6867C308.145 60.059 307.249 59.3058 306.478 58.4629C305.08 56.9206 304.094 55.0914 303.575 53.1367C303.126 51.4509 303.019 49.6934 303.288 47.9539C303.539 46.2861 304.112 44.6362 305.062 43.1298C308.773 37.14 316.642 35.2929 322.629 39.0051C324.152 39.9556 325.407 41.1571 326.357 42.538C327.361 43.9727 328.06 45.6046 328.4 47.3083C328.813 49.2989 328.741 51.3792 328.167 53.3698C327.845 54.4637 327.379 55.5398 326.751 56.562H326.733Z" fill="url(#paint12_linear_1364_3222)"/>
<path style="mix-blend-mode:multiply" d="M328.15 53.3699C328.723 51.3614 328.795 49.2811 328.383 47.3084C328.042 45.6047 327.343 43.9728 326.339 42.5381C325.371 41.1573 324.116 39.9378 322.611 39.0052C316.624 35.293 308.755 37.1581 305.044 43.1299C304.865 43.4348 304.686 43.7397 304.525 44.0445C308.432 38.7721 315.817 37.2836 321.499 40.7986C323.023 41.7491 324.278 42.9506 325.228 44.3315C326.232 45.7662 326.931 47.3981 327.271 49.1018C327.684 51.0924 327.612 53.1727 327.038 55.1633C326.823 55.9344 326.518 56.7056 326.124 57.4408C326.303 57.2077 326.465 56.9566 326.626 56.7056C326.662 56.6518 326.68 56.6159 326.716 56.5621C327.343 55.5399 327.809 54.4639 328.132 53.3699H328.15Z" fill="url(#paint13_linear_1364_3222)"/>
<path d="M323.848 44.7797C323.848 44.7797 325.801 52.222 321.266 56.3647C316.821 60.4176 310.924 58.7498 306.819 54.2485C306.819 54.2485 308.916 61.2246 316.176 61.0094C324.332 60.7763 328.365 52.9214 323.848 44.7617V44.7797Z" fill="url(#paint14_linear_1364_3222)"/>
<path d="M349.964 31.3297C337.901 26.4697 327.002 19.7267 317.287 11.0828C327.719 4.75232 336.646 1.66777 342.005 0.215156C343.923 -0.304914 345.752 0.161356 347.024 1.32703C347.849 2.08023 348.44 3.10244 348.691 4.35778C349.785 9.80955 350.986 19.1887 349.964 31.3476V31.3297Z" fill="url(#paint15_linear_1364_3222)"/>
<path d="M393.172 359L343.158 352.419C336.621 353.973 329.727 354.569 322.671 354.073C312.655 353.378 303.289 350.567 294.965 346.07L242.252 339.125L233.862 339.059H230.837H228.561L223.488 338.993H220.074L214.545 338.927L206.546 338.861L199.619 338.795L-9.47678 337.174C-18.3869 323.913 -23.9151 308.172 -24.8582 291.207C-24.9883 289.025 -25.0208 286.809 -24.9883 284.56C-24.2403 234.394 16.2781 194.347 65.5767 195.008C65.6417 195.008 65.7393 195.008 65.8043 195.008C89.6406 195.372 111.136 205.194 126.94 220.902C139.427 214.519 153.54 211.014 168.499 211.212C188.595 211.51 207.001 218.554 221.765 230.128C232.236 223.679 244.528 220.075 257.665 220.273C281.859 220.637 302.899 233.898 314.508 253.541C322.541 250.267 331.353 248.515 340.556 248.68C371.807 249.143 397.789 271.167 405.008 300.599C405.886 304.105 406.472 307.676 406.764 311.38C406.959 313.662 407.025 316.01 406.992 318.358C406.764 333.669 401.626 347.723 393.139 359H393.172Z" fill="white"/>
<path d="M176.482 186.608C176.213 190.607 172.754 193.62 168.756 193.351C164.759 193.082 161.748 189.62 162.017 185.621C162.286 181.622 165.745 178.609 169.742 178.878C173.74 179.147 176.751 182.608 176.482 186.608Z" fill="url(#paint16_linear_1364_3222)"/>
<path d="M289.589 217.182C292.123 217.182 294.178 215.126 294.178 212.591C294.178 210.055 292.123 208 289.589 208C287.054 208 285 210.055 285 212.591C285 215.126 287.054 217.182 289.589 217.182Z" fill="url(#paint17_linear_1364_3222)"/>
<path d="M189.155 180.187C189.011 182.339 187.147 183.971 184.978 183.828C182.81 183.684 181.196 181.819 181.34 179.649C181.483 177.479 183.347 175.865 185.498 176.009C187.649 176.152 189.28 178.017 189.137 180.169L189.155 180.187Z" fill="url(#paint18_linear_1364_3222)"/>
<path d="M313.644 221.88C313.357 226.077 309.719 229.251 305.524 228.964C301.33 228.677 298.157 225.037 298.444 220.84C298.731 216.644 302.369 213.47 306.564 213.757C310.758 214.043 313.931 217.684 313.644 221.88Z" fill="url(#paint19_linear_1364_3222)"/>
<path d="M209.667 178.581L210.76 143.898L205.185 160.397L204.325 104.229L202.622 171.569L208.34 159.231L209.667 178.581Z" fill="url(#paint20_linear_1364_3222)"/>
<path d="M266.112 194.757L297.821 187.225L281.24 186.884L331.842 172.681L270.36 187.62L283.23 189.054L266.112 194.757Z" fill="url(#paint21_linear_1364_3222)"/>
</g>
</g>
<defs>
<linearGradient id="paint0_linear_1364_3222" x1="140.5" y1="48.8969" x2="140.5" y2="93.0466" gradientUnits="userSpaceOnUse">
<stop stop-color="white"/>
<stop offset="0.22" stop-color="white" stop-opacity="0.76"/>
<stop offset="0.6" stop-color="white" stop-opacity="0.36"/>
<stop offset="0.87" stop-color="white" stop-opacity="0.1"/>
<stop offset="1" stop-color="white" stop-opacity="0"/>
</linearGradient>
<linearGradient id="paint1_linear_1364_3222" x1="81.444" y1="127.155" x2="83.3457" y2="182.316" gradientUnits="userSpaceOnUse">
<stop stop-color="white"/>
<stop offset="0.22" stop-color="white" stop-opacity="0.76"/>
<stop offset="0.6" stop-color="white" stop-opacity="0.36"/>
<stop offset="0.87" stop-color="white" stop-opacity="0.1"/>
<stop offset="1" stop-color="white" stop-opacity="0"/>
</linearGradient>
<linearGradient id="paint2_linear_1364_3222" x1="265.251" y1="193" x2="261.214" y2="267.657" gradientUnits="userSpaceOnUse">
<stop stop-color="white"/>
<stop offset="0.22" stop-color="white" stop-opacity="0.76"/>
<stop offset="0.6" stop-color="white" stop-opacity="0.36"/>
<stop offset="0.87" stop-color="white" stop-opacity="0.1"/>
<stop offset="1" stop-color="white" stop-opacity="0"/>
</linearGradient>
<linearGradient id="paint3_linear_1364_3222" x1="9.6613" y1="184.715" x2="14.398" y2="272.265" gradientUnits="userSpaceOnUse">
<stop stop-color="white"/>
<stop offset="0.22" stop-color="white" stop-opacity="0.76"/>
<stop offset="0.6" stop-color="white" stop-opacity="0.36"/>
<stop offset="0.87" stop-color="white" stop-opacity="0.1"/>
<stop offset="1" stop-color="white" stop-opacity="0"/>
</linearGradient>
<linearGradient id="paint4_linear_1364_3222" x1="61.6614" y1="83.8177" x2="62.734" y2="134.508" gradientUnits="userSpaceOnUse">
<stop stop-color="white"/>
<stop offset="0.22" stop-color="white" stop-opacity="0.76"/>
<stop offset="0.6" stop-color="white" stop-opacity="0.36"/>
<stop offset="0.87" stop-color="white" stop-opacity="0.1"/>
<stop offset="1" stop-color="white" stop-opacity="0"/>
</linearGradient>
<linearGradient id="paint5_linear_1364_3222" x1="218.917" y1="259.518" x2="228.464" y2="187.484" gradientUnits="userSpaceOnUse">
<stop stop-color="#C8D0FD"/>
<stop offset="1" stop-color="white"/>
</linearGradient>
<linearGradient id="paint6_linear_1364_3222" x1="325.608" y1="159.41" x2="309.774" y2="120.919" gradientUnits="userSpaceOnUse">
<stop stop-color="#FC8056"/>
<stop offset="1" stop-color="#E53938"/>
</linearGradient>
<linearGradient id="paint7_linear_1364_3222" x1="202.922" y1="118.747" x2="263.765" y2="68.7543" gradientUnits="userSpaceOnUse">
<stop stop-color="#FC8056"/>
<stop offset="1" stop-color="#E53938"/>
</linearGradient>
<linearGradient id="paint8_linear_1364_3222" x1="255.192" y1="148.53" x2="296.91" y2="80.6115" gradientUnits="userSpaceOnUse">
<stop stop-color="#C8D0FD"/>
<stop offset="1" stop-color="white"/>
</linearGradient>
<linearGradient id="paint9_linear_1364_3222" x1="269.514" y1="124.559" x2="261.641" y2="138.722" gradientUnits="userSpaceOnUse">
<stop stop-color="#031A2F"/>
<stop offset="1" stop-color="#00446F"/>
</linearGradient>
<linearGradient id="paint10_linear_1364_3222" x1="260.799" y1="138.478" x2="303.76" y2="70.2124" gradientUnits="userSpaceOnUse">
<stop stop-color="#FC8056"/>
<stop offset="1" stop-color="#E53938"/>
</linearGradient>
<linearGradient id="paint11_linear_1364_3222" x1="303.595" y1="70.439" x2="324.091" y2="36.1756" gradientUnits="userSpaceOnUse">
<stop stop-color="#031A2F"/>
<stop offset="1" stop-color="#00446F"/>
</linearGradient>
<linearGradient id="paint12_linear_1364_3222" x1="308.664" y1="30.6491" x2="317.083" y2="52.9671" gradientUnits="userSpaceOnUse">
<stop stop-color="#13F3FB"/>
<stop offset="1" stop-color="#07C9CF"/>
</linearGradient>
<linearGradient id="paint13_linear_1364_3222" x1="312.496" y1="54.8766" x2="315.14" y2="50.9707" gradientUnits="userSpaceOnUse">
<stop stop-color="#13F3FB"/>
<stop offset="1" stop-color="#07C9CF"/>
</linearGradient>
<linearGradient id="paint14_linear_1364_3222" x1="320.405" y1="63.3221" x2="312.787" y2="42.1277" gradientUnits="userSpaceOnUse">
<stop stop-color="#13F3FB"/>
<stop offset="1" stop-color="#07C9CF"/>
</linearGradient>
<linearGradient id="paint15_linear_1364_3222" x1="354.861" y1="23.8873" x2="326.451" y2="1.9678" gradientUnits="userSpaceOnUse">
<stop stop-color="#FC8056"/>
<stop offset="1" stop-color="#E53938"/>
</linearGradient>
<linearGradient id="paint16_linear_1364_3222" x1="168.03" y1="203.547" x2="169.238" y2="185.87" gradientUnits="userSpaceOnUse">
<stop stop-color="#C8D0FD"/>
<stop offset="1" stop-color="white"/>
</linearGradient>
<linearGradient id="paint17_linear_1364_3222" x1="288.824" y1="223.614" x2="289.587" y2="212.449" gradientUnits="userSpaceOnUse">
<stop stop-color="#C8D0FD"/>
<stop offset="1" stop-color="white"/>
</linearGradient>
<linearGradient id="paint18_linear_1364_3222" x1="184.596" y1="189.329" x2="185.248" y2="179.793" gradientUnits="userSpaceOnUse">
<stop stop-color="#C8D0FD"/>
<stop offset="1" stop-color="white"/>
</linearGradient>
<linearGradient id="paint19_linear_1364_3222" x1="304.775" y1="239.714" x2="306.046" y2="221.124" gradientUnits="userSpaceOnUse">
<stop stop-color="#C8D0FD"/>
<stop offset="1" stop-color="white"/>
</linearGradient>
<linearGradient id="paint20_linear_1364_3222" x1="206.685" y1="192.218" x2="206.696" y2="164.336" gradientUnits="userSpaceOnUse">
<stop stop-color="#C8D0FD"/>
<stop offset="1" stop-color="white"/>
</linearGradient>
<linearGradient id="paint21_linear_1364_3222" x1="255.137" y1="202.2" x2="295.305" y2="182.942" gradientUnits="userSpaceOnUse">
<stop stop-color="#C8D0FD"/>
<stop offset="1" stop-color="white"/>
</linearGradient>
<clipPath id="clip0_1364_3222">
<rect width="358" height="255" fill="white"/>
</clipPath>
<clipPath id="clip1_1364_3222">
<rect width="402" height="319" fill="white"/>
</clipPath>
</defs>
</svg>
